<svg xmlns="http://www.w3.org/2000/svg" viewBox="0 0 74.5 73.03"><defs><style>.cls-1{fill:#8d96a0;}.cls-2{fill:#fff;}</style></defs><title>Recurso 345</title><g id="Capa_2" data-name="Capa 2"><g id="Capa_1-2" data-name="Capa 1"><rect class="cls-1" width="74.5" height="73.03" rx="16.46"/><path class="cls-2" d="M37.25,15.26A21.26,21.26,0,1,0,58.51,36.52,21.28,21.28,0,0,0,37.25,15.26Zm0,38.26a17,17,0,1,1,17-17A17,17,0,0,1,37.25,53.52Z"/><polygon class="cls-2" points="39.38 25.89 35.12 25.89 35.12 34.39 26.62 34.39 26.62 38.64 35.12 38.64 35.12 47.15 39.38 47.15 39.38 38.64 47.88 38.64 47.88 34.39 39.38 34.39 39.38 25.89"/></g></g></svg>